<svg width="49" height="26" viewBox="0 0 49 26" fill="none" xmlns="http://www.w3.org/2000/svg">
<path d="M2 11.25C1.0335 11.25 0.25 12.0335 0.25 13C0.25 13.9665 1.0335 14.75 2 14.75V11.25ZM48.2374 14.2374C48.9209 13.554 48.9209 12.446 48.2374 11.7626L37.1005 0.625631C36.4171 -0.057786 35.309 -0.057786 34.6256 0.625631C33.9422 1.30905 33.9422 2.41709 34.6256 3.1005L44.5251 13L34.6256 22.8995C33.9422 23.5829 33.9422 24.691 34.6256 25.3744C35.309 26.0578 36.4171 26.0578 37.1005 25.3744L48.2374 14.2374ZM2 14.75H47V11.25H2V14.75Z" fill="white"/>
</svg>
