<svg width="200" height="45" viewBox="0 0 200 45" fill="none" xmlns="http://www.w3.org/2000/svg">
<path d="M16.7826 37.3932C11.7516 37.3932 7.68944 33.3616 7.68944 28.3685C7.68944 23.4123 11.7516 19.3808 16.7826 19.3808C21.7764 19.3808 25.8385 23.4123 25.8385 28.3685C25.8385 33.3616 21.7764 37.3932 16.7826 37.3932ZM7.68944 41.9795C10.2981 43.7178 13.4286 44.7164 16.7826 44.7164C20.1366 44.7164 23.2298 43.7178 25.8385 41.9795V44.7164H33.2174V28.3685V12.0575H25.8385V14.7575C23.2298 13.0562 20.1366 12.0575 16.7826 12.0575C13.4286 12.0575 10.2981 13.0562 7.68944 14.7575C3.25466 17.6795 0.310558 22.7096 0.310558 28.3685C0.310558 34.0644 3.25466 39.0575 7.68944 41.9795ZM61.2652 37.3932V44.7164H68.6441V26.8521C68.6441 21.4521 65.6627 16.6808 61.2652 14.1288C59.0292 12.7973 56.4578 12.0575 53.7 12.0575C50.9422 12.0575 48.4081 12.7973 46.172 14.1288V12.0575H38.7932V26.8521V44.7164H46.172V37.3932V26.8521C46.172 22.7466 49.6006 19.3808 53.7 19.3808C57.8366 19.3808 61.2652 22.7466 61.2652 26.8521V37.3932ZM74.2186 39.4644V44.7164H81.5975V33.2877L86.5168 29.1822L97.9578 44.7164H107.125L92.1814 24.4849L107.125 12.0575H95.6099L87.8211 18.5671L82.1565 23.3014L81.5975 23.7452V22.5247V12.0575V10.1712V0.0739708H74.2186V11.4288V12.0575V12.5384V29.8849V39.4644ZM116.292 23.5233C117.932 21.0082 120.727 19.3808 123.932 19.3808C127.099 19.3808 129.894 21.0082 131.534 23.4493C131.534 23.4863 131.571 23.4863 131.571 23.5233H131.46H116.292ZM123.932 44.7164C129.671 44.7164 134.702 41.7575 137.683 37.3932L131.534 33.2877C129.894 35.7658 127.099 37.3932 123.932 37.3932C119.795 37.3932 116.255 34.6192 115.211 30.8096H120.391H127.77H132.652H140.18C140.292 30.0329 140.366 29.1822 140.366 28.3685C140.366 26.7041 140.106 25.0397 139.621 23.5233C139.174 22.0438 138.503 20.6384 137.683 19.3808C134.702 14.9795 129.671 12.0575 123.932 12.0575C120.578 12.0575 117.447 13.0562 114.876 14.7575C111.745 16.8288 109.398 19.8986 108.205 23.5233C107.758 25.0397 107.497 26.7041 107.497 28.3685C107.497 29.1822 107.571 30.0329 107.646 30.8096C108.391 35.5069 111.075 39.5014 114.876 41.9795C117.447 43.7178 120.578 44.7164 123.932 44.7164ZM145.943 28.3685V3.25479H153.322V12.0575H160.739V19.3808H153.322V28.3685C153.322 33.3616 157.347 37.3932 162.378 37.3932V44.7164C159.024 44.7164 155.894 43.7178 153.322 41.9795C148.888 39.0575 145.943 34.0644 145.943 28.3685ZM182.956 37.3932C177.925 37.3932 173.863 33.3616 173.863 28.3685C173.863 23.4123 177.925 19.3808 182.956 19.3808C187.95 19.3808 192.012 23.4123 192.012 28.3685C192.012 33.3616 187.95 37.3932 182.956 37.3932ZM173.863 41.9795C176.471 43.7178 179.602 44.7164 182.956 44.7164C186.31 44.7164 189.403 43.7178 192.012 41.9795V44.7164H199.391V28.3685V12.0575H192.012V14.7575C189.403 13.0562 186.31 12.0575 182.956 12.0575C179.602 12.0575 176.471 13.0562 173.863 14.7575C169.428 17.6795 166.484 22.7096 166.484 28.3685C166.484 34.0644 169.428 39.0575 173.863 41.9795Z" fill="white"/>
</svg>
