<svg width="270" height="270" viewBox="0 0 270 270" fill="none" xmlns="http://www.w3.org/2000/svg">
<g filter="url(#filter0_d_46_35)">
<circle cx="135" cy="135" r="75" fill="#33CE71"/>
</g>
<path d="M110 102.003V118.434C110 119.537 110.863 120.429 111.925 120.429H127.734C128.796 120.429 129.658 119.532 129.658 118.434V112.957H125.814V116.434H113.849V103.995H120.456V100H111.925C110.863 100 110 100.896 110 102.003L110 102.003Z" fill="white"/>
<path d="M136.042 107.547H160V112.877H136.042V107.547Z" fill="white"/>
<path d="M116.53 128.782V124.787H111.926C110.864 124.787 110.001 125.687 110.001 126.787V143.217C110.001 144.321 110.864 145.212 111.926 145.212H127.735V141.218H113.849V128.782H116.53Z" fill="white"/>
<path d="M136.042 132.337H160V137.663H136.042V132.337Z" fill="white"/>
<path d="M136.042 157.12H160V162.45H136.042V157.12Z" fill="white"/>
<path d="M132.056 101.093C128.232 101.891 123.913 106.227 121.514 108.964C120.358 107.237 119.226 106.147 119.159 106.081C118.379 105.336 117.161 105.385 116.443 106.195C115.722 107.005 115.769 108.272 116.553 109.012C116.568 109.032 118.39 110.816 119.484 113.227C119.766 113.849 120.339 114.281 120.996 114.358C121.071 114.367 121.145 114.37 121.224 114.37C121.804 114.37 122.357 114.101 122.729 113.621C125.037 110.62 129.818 105.628 132.817 105.009C133.863 104.789 134.533 103.739 134.326 102.656C134.109 101.577 133.095 100.865 132.056 101.093L132.056 101.093Z" fill="white"/>
<path d="M110 168C110 169.104 110.863 170 111.925 170H127.734C128.796 170 129.658 169.104 129.658 168V162.528H125.814V166.005H113.849V153.57H120.456V149.575H111.925C110.863 149.575 110 150.475 110 151.575L110 168Z" fill="white"/>
<path d="M134.323 152.23C134.111 151.146 133.096 150.438 132.058 150.662C128.233 151.46 123.915 155.796 121.516 158.533C120.359 156.806 119.227 155.716 119.161 155.65C118.381 154.901 117.162 154.954 116.445 155.764C115.724 156.574 115.77 157.836 116.554 158.581C116.57 158.601 118.392 160.385 119.485 162.796C119.768 163.418 120.34 163.846 120.998 163.927C121.072 163.935 121.147 163.939 121.225 163.939C121.805 163.939 122.358 163.67 122.73 163.19C125.039 160.189 129.819 155.201 132.818 154.578C133.856 154.367 134.531 153.313 134.323 152.229L134.323 152.23Z" fill="white"/>
<path d="M118.031 138.88C118.364 139.125 118.744 139.235 119.12 139.235C119.731 139.235 120.33 138.938 120.707 138.371C120.722 138.339 121.557 137.122 122.881 135.586C123.684 136.572 124.457 137.611 125.064 138.612C125.429 139.215 126.052 139.548 126.694 139.548C127.043 139.548 127.4 139.447 127.717 139.239C128.615 138.649 128.885 137.419 128.316 136.483C127.556 135.228 126.6 133.962 125.624 132.782C127.125 131.434 128.854 130.171 130.691 129.491C131.69 129.12 132.216 127.981 131.856 126.938C131.503 125.904 130.402 125.362 129.403 125.733C127.024 126.613 124.845 128.176 123.019 129.829C121.835 128.571 120.934 127.716 120.848 127.642C120.06 126.897 118.845 126.958 118.131 127.785C117.422 128.603 117.48 129.865 118.272 130.603C118.288 130.623 119.146 131.433 120.275 132.622C118.656 134.458 117.629 135.962 117.535 136.1C116.937 137.016 117.157 138.257 118.031 138.88L118.031 138.88Z" fill="white"/>
<defs>
<filter id="filter0_d_46_35" x="0" y="0" width="270" height="270" filterUnits="userSpaceOnUse" color-interpolation-filters="sRGB">
<feFlood flood-opacity="0" result="BackgroundImageFix"/>
<feColorMatrix in="SourceAlpha" type="matrix" values="0 0 0 0 0 0 0 0 0 0 0 0 0 0 0 0 0 0 127 0" result="hardAlpha"/>
<feMorphology radius="10" operator="dilate" in="SourceAlpha" result="effect1_dropShadow_46_35"/>
<feOffset/>
<feGaussianBlur stdDeviation="25"/>
<feComposite in2="hardAlpha" operator="out"/>
<feColorMatrix type="matrix" values="0 0 0 0 0.273125 0 0 0 0 0.8625 0 0 0 0 0.332062 0 0 0 0.5 0"/>
<feBlend mode="normal" in2="BackgroundImageFix" result="effect1_dropShadow_46_35"/>
<feBlend mode="normal" in="SourceGraphic" in2="effect1_dropShadow_46_35" result="shape"/>
</filter>
</defs>
</svg>
