<svg width="270" height="270" viewBox="0 0 270 270" fill="none" xmlns="http://www.w3.org/2000/svg">
<g filter="url(#filter0_d_46_56)">
<circle cx="135" cy="135" r="75" fill="#6360F5"/>
</g>
<path d="M161.857 134.528C163.879 131.043 164.952 127.114 164.952 123.014C164.951 110.324 154.654 100 141.996 100C129.338 100 119.041 110.325 119.041 123.014C119.041 128.78 121.171 134.24 124.964 138.437C124.118 138.752 123.337 139.233 122.669 139.872L118.144 144.21C117.533 143.942 116.869 143.797 116.18 143.789C116.161 143.789 116.142 143.788 116.125 143.788C114.799 143.788 113.552 144.297 112.608 145.223L106.507 151.211C105.55 152.149 105.015 153.41 105 154.76C104.986 156.109 105.494 157.381 106.431 158.341L116.339 168.49C117.275 169.449 118.533 169.985 119.88 170H119.935C121.261 170 122.507 169.492 123.451 168.566L129.552 162.577C131.031 161.125 131.424 158.974 130.72 157.15C131.808 156.371 133.126 155.937 134.447 155.937H143.852C145.704 155.937 147.54 155.457 149.165 154.548C149.73 154.232 150.229 153.89 150.681 153.517L155.868 149.311C156.075 149.171 156.281 149.002 156.494 148.802L156.523 148.778C156.536 148.768 156.546 148.754 156.559 148.743C156.598 148.705 156.633 148.678 156.673 148.638L164.05 140.751C164.663 140.097 165 139.239 165 138.336C165 137.388 164.608 136.458 163.897 135.759C163.304 135.208 162.606 134.799 161.858 134.528L161.857 134.528ZM141.996 103.111C152.942 103.111 161.848 112.04 161.848 123.014C161.848 127.123 160.607 131.036 158.278 134.376C157.194 134.664 156.222 135.223 155.466 136.036L151.993 139.757L149.168 141.467C148.354 140.746 147.332 140.336 146.241 140.336H146.239L138.335 140.339C138.299 140.339 138.262 140.327 138.233 140.307L136.738 139.25C135.601 138.44 134.263 138.012 132.866 138.012L128.954 138.012C124.622 134.234 122.142 128.802 122.142 123.014C122.143 112.039 131.049 103.111 141.996 103.111L141.996 103.111ZM161.784 138.624L154.488 146.427L153.838 146.954L153.837 146.954L148.715 151.109C148.397 151.373 148.047 151.611 147.648 151.835C146.488 152.485 145.174 152.828 143.85 152.828H134.445C132.462 152.828 130.484 153.475 128.854 154.658L124.893 150.6C124.294 149.986 123.31 149.975 122.699 150.577C122.086 151.177 122.076 152.162 122.676 152.776L127.41 157.624C128.152 158.385 128.139 159.61 127.38 160.355L121.28 166.343C120.522 167.087 119.299 167.074 118.557 166.312L108.646 156.165C108.289 155.799 108.096 155.313 108.102 154.794C108.108 154.276 108.312 153.793 108.676 153.436L114.777 147.448C115.536 146.704 116.758 146.718 117.5 147.477L119.79 149.825C120.391 150.438 121.371 150.449 121.985 149.848C122.597 149.247 122.608 148.262 122.008 147.648L120.577 146.181L124.811 142.122C125.484 141.478 126.369 141.123 127.303 141.123H132.867C133.605 141.123 134.341 141.359 134.946 141.789L136.447 142.849C137.004 143.242 137.657 143.449 138.337 143.449L146.241 143.446H146.242C146.598 143.446 146.936 143.587 147.191 143.843C147.446 144.1 147.588 144.439 147.588 144.796C147.588 145.54 146.984 146.145 146.242 146.145L136.533 146.146C135.676 146.146 134.981 146.843 134.981 147.701C134.981 148.56 135.677 149.257 136.533 149.257H146.241C148.694 149.257 150.69 147.255 150.69 144.796C150.69 144.599 150.658 144.407 150.633 144.213L153.777 142.31C153.788 142.303 153.797 142.294 153.808 142.287C153.863 142.252 153.915 142.211 153.965 142.168C153.997 142.141 154.029 142.115 154.058 142.086C154.074 142.07 154.092 142.059 154.107 142.043L157.735 138.158C158.245 137.608 158.856 137.397 159.272 137.317C160.178 137.146 161.117 137.416 161.75 138.007C161.875 138.13 161.894 138.266 161.894 138.336C161.894 138.487 161.836 138.57 161.784 138.624L161.784 138.624Z" fill="white"/>
<path d="M139.026 131.382C139.321 131.701 139.733 131.881 140.165 131.881C140.198 131.881 140.23 131.881 140.264 131.878C140.729 131.849 141.157 131.61 141.428 131.229L151.841 116.612C152.339 115.914 152.178 114.942 151.48 114.442C150.782 113.944 149.814 114.104 149.315 114.805L140.01 127.868L134.553 121.961C133.97 121.328 132.988 121.292 132.361 121.876C131.732 122.461 131.695 123.445 132.277 124.074L139.026 131.382Z" fill="white"/>
<defs>
<filter id="filter0_d_46_56" x="0" y="0" width="270" height="270" filterUnits="userSpaceOnUse" color-interpolation-filters="sRGB">
<feFlood flood-opacity="0" result="BackgroundImageFix"/>
<feColorMatrix in="SourceAlpha" type="matrix" values="0 0 0 0 0 0 0 0 0 0 0 0 0 0 0 0 0 0 127 0" result="hardAlpha"/>
<feMorphology radius="10" operator="dilate" in="SourceAlpha" result="effect1_dropShadow_46_56"/>
<feOffset/>
<feGaussianBlur stdDeviation="25"/>
<feComposite in2="hardAlpha" operator="out"/>
<feColorMatrix type="matrix" values="0 0 0 0 0.327889 0 0 0 0 0.315278 0 0 0 0 0.945833 0 0 0 0.5 0"/>
<feBlend mode="normal" in2="BackgroundImageFix" result="effect1_dropShadow_46_56"/>
<feBlend mode="normal" in="SourceGraphic" in2="effect1_dropShadow_46_56" result="shape"/>
</filter>
</defs>
</svg>
