<svg width="270" height="270" viewBox="0 0 270 270" fill="none" xmlns="http://www.w3.org/2000/svg">
<g filter="url(#filter0_d_46_50)">
<circle cx="135" cy="135" r="75" fill="#F15050"/>
</g>
<path d="M170.999 139.525C170.987 140.279 170.495 140.942 169.775 141.169L148.02 148.02L141.169 169.775C140.943 170.495 140.279 170.989 139.525 171H139.501C138.755 171 138.091 170.528 137.847 169.822L122.097 124.321C121.877 123.688 122.039 122.985 122.513 122.512C122.987 122.037 123.693 121.877 124.323 122.095L169.822 137.845C170.536 138.093 171.01 138.768 171 139.524L170.999 139.525ZM123.75 113.25C124.716 113.25 125.5 112.465 125.5 111.5V102.75C125.5 101.784 124.715 101 123.75 101C122.784 101 122 101.784 122 102.75V111.5C121.999 112.466 122.782 113.25 123.75 113.25ZM110.137 107.663C109.454 106.98 108.346 106.98 107.663 107.663C106.979 108.347 106.979 109.455 107.663 110.138L113.85 116.325C114.192 116.667 114.639 116.837 115.087 116.837C115.535 116.837 115.983 116.667 116.324 116.325C117.008 115.641 117.008 114.533 116.324 113.85L110.137 107.663ZM113.249 123.751C113.249 122.785 112.465 122.001 111.5 122.001L102.75 122C101.784 122 101 122.785 101 123.75C101 124.716 101.784 125.5 102.75 125.5H111.5C112.466 125.501 113.249 124.716 113.249 123.751ZM113.85 131.175L107.663 137.362C106.979 138.046 106.979 139.154 107.663 139.837C108.005 140.179 108.452 140.349 108.9 140.349C109.348 140.349 109.796 140.179 110.137 139.837L116.324 133.65C117.008 132.966 117.008 131.858 116.324 131.175C115.641 130.492 114.534 130.492 113.85 131.175ZM132.411 116.839C132.859 116.839 133.306 116.668 133.648 116.326L139.835 110.139C140.518 109.456 140.518 108.348 139.835 107.665C139.151 106.981 138.044 106.981 137.361 107.665L131.173 113.852C130.49 114.536 130.49 115.643 131.173 116.326C131.515 116.668 131.963 116.839 132.411 116.839Z" fill="white"/>
<defs>
<filter id="filter0_d_46_50" x="0" y="0" width="270" height="270" filterUnits="userSpaceOnUse" color-interpolation-filters="sRGB">
<feFlood flood-opacity="0" result="BackgroundImageFix"/>
<feColorMatrix in="SourceAlpha" type="matrix" values="0 0 0 0 0 0 0 0 0 0 0 0 0 0 0 0 0 0 127 0" result="hardAlpha"/>
<feMorphology radius="10" operator="dilate" in="SourceAlpha" result="effect1_dropShadow_46_50"/>
<feOffset/>
<feGaussianBlur stdDeviation="25"/>
<feComposite in2="hardAlpha" operator="out"/>
<feColorMatrix type="matrix" values="0 0 0 0 0.945833 0 0 0 0 0.315278 0 0 0 0 0.315278 0 0 0 0.5 0"/>
<feBlend mode="normal" in2="BackgroundImageFix" result="effect1_dropShadow_46_50"/>
<feBlend mode="normal" in="SourceGraphic" in2="effect1_dropShadow_46_50" result="shape"/>
</filter>
</defs>
</svg>
