<svg width="270" height="270" viewBox="0 0 270 270" fill="none" xmlns="http://www.w3.org/2000/svg">
<g filter="url(#filter0_d_46_64)">
<circle cx="135" cy="135" r="75" fill="#EC8C47"/>
</g>
<path fill-rule="evenodd" clip-rule="evenodd" d="M137.333 104.666V109.421C125.734 110.305 115.951 117.725 111.661 127.999H106.999C105.711 127.999 104.666 129.045 104.666 130.333C104.666 131.621 105.711 132.666 106.999 132.666H113.262C114.251 132.666 115.131 132.043 115.462 131.112C118.988 121.146 128.499 114 139.666 114C153.832 114 165.333 125.501 165.333 139.666C165.333 153.832 153.832 165.333 139.666 165.333C128.499 165.333 118.988 158.186 115.462 148.221C115.131 147.29 114.251 146.667 113.262 146.667H106.999C105.711 146.667 104.666 147.712 104.666 149C104.666 150.288 105.711 151.333 106.999 151.333H111.661C116.235 162.291 127.056 170 139.667 170C156.408 170 170 156.408 170 139.667C170 123.712 157.652 110.615 142 109.422V104.667H149C150.288 104.667 151.333 103.621 151.333 102.333C151.333 101.045 150.288 100 149 100H130.333C129.045 100 128 101.045 128 102.333C128 103.621 129.045 104.667 130.333 104.667L137.333 104.666Z" fill="white"/>
<path fill-rule="evenodd" clip-rule="evenodd" d="M102.333 141.999H111.667C112.955 141.999 114 140.953 114 139.665C114 138.377 112.955 137.332 111.667 137.332H102.333C101.045 137.332 100 138.377 100 139.665C100 140.953 101.045 141.999 102.333 141.999Z" fill="white"/>
<path fill-rule="evenodd" clip-rule="evenodd" d="M139.667 118.666C128.077 118.666 118.667 128.076 118.667 139.665C118.667 151.255 128.077 160.665 139.667 160.665C151.256 160.665 160.667 151.255 160.667 139.665C160.667 128.076 151.256 118.666 139.667 118.666ZM137.333 130.332V139.665C137.333 140.953 138.379 141.999 139.667 141.999H149C150.288 141.999 151.333 140.953 151.333 139.665C151.333 138.377 150.288 137.332 149 137.332H142V130.332C142 129.044 140.955 127.999 139.667 127.999C138.379 127.999 137.333 129.044 137.333 130.332Z" fill="white"/>
<defs>
<filter id="filter0_d_46_64" x="0" y="0" width="270" height="270" filterUnits="userSpaceOnUse" color-interpolation-filters="sRGB">
<feFlood flood-opacity="0" result="BackgroundImageFix"/>
<feColorMatrix in="SourceAlpha" type="matrix" values="0 0 0 0 0 0 0 0 0 0 0 0 0 0 0 0 0 0 127 0" result="hardAlpha"/>
<feMorphology radius="10" operator="dilate" in="SourceAlpha" result="effect1_dropShadow_46_64"/>
<feOffset/>
<feGaussianBlur stdDeviation="25"/>
<feComposite in2="hardAlpha" operator="out"/>
<feColorMatrix type="matrix" values="0 0 0 0 0.875 0 0 0 0 0.631458 0 0 0 0 0.266146 0 0 0 0.5 0"/>
<feBlend mode="normal" in2="BackgroundImageFix" result="effect1_dropShadow_46_64"/>
<feBlend mode="normal" in="SourceGraphic" in2="effect1_dropShadow_46_64" result="shape"/>
</filter>
</defs>
</svg>
