<svg width="500" height="50" viewBox="0 0 500 50" fill="none" xmlns="http://www.w3.org/2000/svg">
<path fill-rule="evenodd" clip-rule="evenodd" d="M476.219 13.2406L476.213 29.3974L488.838 13.2406H497.338L485.538 27.9262L500 49.4143H487.244L476.325 33.7523L476.369 49.4143H465.413V13.2406H476.219ZM331.1 13.3122H347.331C352.163 13.3122 361.981 13.5335 361.7 22.5558C361.519 28.4339 355.331 30.2827 352.744 31.1745C354.938 31.4153 363.475 30.491 363.431 40.4767C363.419 42.7745 362.469 44.9878 361.456 46.1074C358.7 49.1474 352.256 49.4924 348.231 49.4924H331.1V21.2213V13.3122ZM342.438 28.6032H345.613C348.419 28.6032 350.9 26.3053 350.9 23.721C350.9 20.7526 348.763 18.1032 345.6 18.1032H342.444V28.6032H342.438ZM342.456 44.9097H345.7C349.738 44.9097 351.531 42.1626 351.6 38.8818C351.663 35.8158 348.606 33.3812 345.6 33.3812H342.431L342.456 44.9097ZM384.575 13.3122H393.638L407.363 49.4859H395.631L391.55 40.392H381.063L377.231 49.4859H369.806L384.575 13.3122ZM386.65 23.5908L382.538 35.7507L390.7 35.7572L386.65 23.5908ZM417.444 13.4749H425.35L445.163 34.566V13.4749H451.4V41.7525V49.6551H442.888L423.75 29.6187V49.6551H417.45V21.3841V13.4749H417.444ZM172.688 34.566L172.644 49.4208H163.306L163.281 13.3252L177.044 13.2471C181.25 13.2211 184.331 14.523 186.294 16.0658C188.244 17.602 189.225 20.0171 189.225 23.2849C189.225 27.0539 188.006 29.8791 185.569 31.7669C181.913 34.605 177.075 34.566 172.688 34.566ZM172.631 30.849C175.431 30.849 177.444 30.2957 178.644 29.1825C179.85 28.0694 180.456 26.2272 180.456 23.6494C180.456 21.5663 179.956 19.991 178.969 18.93C177.981 17.8689 176.519 17.3416 174.588 17.3416C174.431 17.3416 174.194 17.3612 173.869 17.3937C173.544 17.4263 173.15 17.4718 172.688 17.5174C172.669 17.9405 172.65 18.3571 172.644 18.7607C172.638 19.1513 172.638 19.5419 172.638 19.9194V22.8943V30.849H172.631ZM199.888 49.4794V13.3057H209.75V49.4794H199.888ZM248.225 18.5914L239.138 18.585L239.194 49.6942H229.225L229.238 18.5785L220.125 18.611L220.15 18.4287V13.5205H248.219V18.5914H248.225ZM298.925 49.4859V13.3122H308.875L308.95 44.4215L320.094 44.4279L320.05 49.4859H298.925ZM130.044 13.3122H139.106L152.831 49.4859H141.1L137.513 40.392H126.531L122.7 49.4859H115.275L130.044 13.3122ZM132.119 23.5908L128.006 35.7507L136.169 35.7572L132.119 23.5908ZM264.831 13.3122H273.894L287.619 49.4859H275.888L271.806 40.392H261.319L257.488 49.4859H250.063L264.831 13.3122ZM266.906 23.5908L262.794 35.7507L270.956 35.7572L266.906 23.5908ZM82.7063 13.2406L82.7001 29.3974L95.325 13.2406H103.825L92.025 27.9262L106.481 49.4143H93.725L82.8063 33.7523L82.85 49.4143H71.8938V13.2406H82.7063Z" fill="#D1D1D1"/>
<path fill-rule="evenodd" clip-rule="evenodd" d="M0 0H10.3438L0 38.3544V0ZM13.6687 0H30.325L16.8375 50H0.181246L13.6687 0ZM33.65 0H49.9875L36.5 49.9935H20.1625L33.65 0ZM50.0125 12.225V49.9935H39.825L50.0125 12.225Z" fill="#AEAEAE"/>
</svg>
