<svg width="400" height="50" viewBox="0 0 400 50" fill="none" xmlns="http://www.w3.org/2000/svg">
<path d="M94.8819 9.63301L109.967 41.2874C107.967 41.6651 105.927 41.8649 103.882 41.8866C102.712 41.8822 101.547 41.7998 100.397 41.6391L97.4818 35.3082H82.3971L79.4822 41.6391C78.0522 41.7824 76.6123 41.8475 75.1723 41.8388C73.4823 41.8822 71.7924 41.6999 70.1674 41.2917L85.3771 9.63735C86.992 9.4159 88.622 9.31604 90.257 9.33775C91.8019 9.31604 93.3519 9.41591 94.8819 9.63301ZM85.3121 29.125H94.5669L91.142 21.7476L89.872 18.656L88.732 21.7476L85.3121 29.125Z" fill="#D1D1D1"/>
<path d="M144.701 9.38121C146.311 9.38555 147.921 9.48542 149.516 9.68082V41.4872C146.521 41.9214 143.481 42.056 140.451 41.8866L124.736 23.6886L123.406 21.7955L123.661 24.0881V41.6305C122.086 41.8259 120.496 41.9257 118.906 41.9301C117.356 41.917 115.811 41.8172 114.281 41.6305V9.92833C115.706 9.58964 117.176 9.39858 118.656 9.35516C120.221 9.26832 121.786 9.29437 123.346 9.42898L139.001 28.0265L140.396 29.9674L140.141 27.4229V9.67649C141.651 9.49846 143.171 9.39858 144.701 9.38121Z" fill="#D1D1D1"/>
<path d="M177.025 42.5336C174.135 42.5553 171.26 42.1428 168.53 41.3135C166.02 40.5579 163.705 39.3812 161.715 37.8484C159.79 36.3504 158.265 34.505 157.245 32.4381C155.136 28.0699 155.136 23.1458 157.245 18.7776C158.265 16.7064 159.79 14.8566 161.715 13.3412C163.7 11.7954 166.015 10.6013 168.53 9.82843C171.255 8.9817 174.13 8.56052 177.025 8.58223C179.925 8.56052 182.81 8.97736 185.55 9.80237C188.065 10.5536 190.38 11.7303 192.365 13.2674C194.275 14.7742 195.79 16.6196 196.8 18.6778C197.87 20.8575 198.41 23.211 198.385 25.5818C198.4 27.9049 197.86 30.2062 196.8 32.3382C195.78 34.4094 194.255 36.2592 192.33 37.7746C190.335 39.3247 188.01 40.5188 185.485 41.2874C182.77 42.1298 179.905 42.551 177.025 42.5336ZM177.025 35.5037C180.03 35.6165 182.95 34.6309 185.075 32.7855C187.165 30.8358 188.26 28.2392 188.115 25.5818C188.275 22.8983 187.18 20.2713 185.075 18.3C180.505 14.709 173.545 14.709 168.975 18.3C166.87 20.2713 165.77 22.8983 165.935 25.5818C165.79 28.2392 166.89 30.8358 168.975 32.7855C171.1 34.6309 174.02 35.6209 177.025 35.5037Z" fill="#D1D1D1"/>
<path d="M228.364 28.9731L237.874 41.2875C235.249 41.7477 232.569 41.9518 229.889 41.8867L227.479 41.8346L219.114 30.6188H218.669L214.044 30.5667V41.6349C212.494 41.8563 210.924 41.9562 209.354 41.9345C207.739 41.9518 206.129 41.852 204.534 41.6349V10.1281C206.394 9.82852 208.614 9.58101 211.189 9.38128C213.764 9.18154 216.109 9.08167 218.224 9.08167C220.399 9.08167 222.574 9.23799 224.719 9.55497C226.689 9.81984 228.584 10.3843 230.329 11.2224C233.734 12.829 235.779 15.9857 235.589 19.3465C235.569 20.5233 235.354 21.687 234.954 22.8116C234.484 24.1273 233.674 25.33 232.579 26.3244C231.389 27.4447 229.954 28.3435 228.364 28.9731ZM214.039 15.5124V24.4355L219.044 24.4877C220.904 24.6136 222.754 24.1446 224.239 23.1676C225.364 22.3253 225.989 21.0921 225.949 19.8025C225.999 18.5346 225.339 17.3274 224.174 16.5632C222.639 15.6774 220.814 15.2562 218.974 15.3691C217.334 15.3691 215.689 15.4169 214.039 15.5124Z" fill="#D1D1D1"/>
<path d="M267.023 25.2866C268.513 25.6991 269.898 26.3504 271.113 27.2058C272.148 27.918 272.943 28.8559 273.428 29.924C275.043 33.6149 273.503 37.7834 269.718 39.9675C266.823 41.6783 262.373 42.5337 256.378 42.5337C251.878 42.5641 247.383 42.2645 242.944 41.6349V10.1759C247.293 9.49417 251.708 9.15982 256.128 9.18154C266.903 9.18154 272.288 12.2384 272.288 18.3565C272.288 21.7477 270.533 24.0578 267.023 25.2866ZM256.823 15.165C255.468 15.165 253.988 15.2171 252.388 15.317V22.5467H257.203C258.763 22.6596 260.323 22.3166 261.638 21.5741C262.598 20.8663 263.118 19.8025 263.033 18.7082C263.063 17.6618 262.463 16.6804 261.448 16.116C260.048 15.4039 258.438 15.0738 256.823 15.165ZM257.328 36.5545C262.103 36.5545 264.488 35.1607 264.493 32.3687C264.543 31.192 263.883 30.076 262.753 29.429C261.233 28.6518 259.478 28.2871 257.713 28.3826H252.388V36.4069C253.988 36.5024 255.638 36.5502 257.328 36.5545Z" fill="#D1D1D1"/>
<path d="M299.982 9.63301L315.067 41.2874C313.067 41.6651 311.027 41.8649 308.982 41.8866C307.812 41.8822 306.647 41.7998 305.497 41.6391L302.582 35.3082H287.493L284.578 41.6391C283.148 41.7824 281.708 41.8475 280.268 41.8388C278.578 41.8822 276.888 41.6999 275.258 41.2917L290.467 9.63735C292.082 9.4159 293.717 9.31604 295.352 9.33775C296.902 9.31604 298.452 9.41591 299.982 9.63301ZM290.412 29.125H299.667L296.242 21.7476L294.972 18.656L293.832 21.7476L290.412 29.125Z" fill="#D1D1D1"/>
<path d="M349.801 9.38121C351.411 9.38555 353.021 9.48542 354.616 9.68082V41.4872C351.621 41.9214 348.581 42.056 345.551 41.8866L329.832 23.6886L328.502 21.7955L328.757 24.0881V41.6305C327.182 41.8259 325.592 41.9257 324.002 41.9301C322.452 41.917 320.907 41.8172 319.377 41.6305V9.92833C320.802 9.58964 322.272 9.39858 323.752 9.35516C325.317 9.26832 326.882 9.29437 328.442 9.42898L344.096 28.0265L345.491 29.9674L345.236 27.4229V9.67649C346.746 9.49846 348.271 9.39858 349.801 9.38121Z" fill="#D1D1D1"/>
<path d="M382.695 24.5876L400 41.3397C397.625 41.6263 395.235 41.7609 392.835 41.7392L387.825 41.6393L375.341 29.377L372.486 31.0227V41.6436C370.931 41.8434 369.366 41.9432 367.796 41.9432C366.206 41.9389 364.616 41.839 363.041 41.6436V9.68966C364.551 9.48992 366.076 9.39005 367.606 9.39005C369.241 9.39439 370.871 9.49426 372.486 9.68966V22.651C375.261 20.8968 377.85 18.9254 380.215 16.7674C382.615 14.5051 384.82 12.0865 386.805 9.53768C388.285 9.43781 389.87 9.39005 391.56 9.39005C393.68 9.38136 395.795 9.48123 397.9 9.68966C393.675 15.252 388.555 20.2715 382.695 24.5876Z" fill="#D1D1D1"/>
<path d="M35.0902 25.0009V30.5371H28.7254C25.2055 30.5415 22.3455 28.0664 22.3405 25.0096C22.3355 21.9527 25.1855 19.4689 28.7054 19.4646C32.2253 19.4603 35.0852 21.9353 35.0902 24.9922C35.0902 24.9965 35.0902 24.9965 35.0902 25.0009Z" fill="#AEAEAE"/>
<path d="M39.6791 0H17.7796C7.94983 0.00868433 -0.00999036 6.93442 9.41158e-06 15.4711V34.5289C-0.00999036 43.0656 7.94983 49.9913 17.7796 50H57.4537V15.4711C57.4687 6.93877 49.5089 0.0130265 39.6791 0ZM44.829 39.01H28.7294C19.8146 38.9926 12.6097 32.7008 12.6297 24.9631C12.6447 19.0621 16.9146 13.8037 23.3095 11.8063V7.61181C23.3095 7.42944 23.4795 7.28615 23.6845 7.28615C23.7845 7.28615 23.8795 7.32089 23.9545 7.38168L26.5394 9.66131C26.6844 9.79158 26.9244 9.79157 27.0694 9.66564C27.0844 9.65262 27.0944 9.63959 27.1044 9.62657L28.4294 8.0851C28.5544 7.94181 28.7894 7.90707 28.9543 8.01563C28.9843 8.03734 29.0144 8.05905 29.0343 8.0851L30.3643 9.62657C30.4893 9.76986 30.7243 9.80025 30.8893 9.6917C30.9043 9.68301 30.9193 9.66999 30.9343 9.65697L33.5192 7.37733C33.6642 7.24707 33.9042 7.24706 34.0492 7.37298C34.1192 7.43377 34.1592 7.51628 34.1592 7.60746V11.802C40.5641 13.8037 44.834 19.0838 44.824 24.9978L44.829 39.01Z" fill="#AEAEAE"/>
</svg>
