<svg width="400" height="50" viewBox="0 0 400 50" fill="none" xmlns="http://www.w3.org/2000/svg">
<path d="M26.2056 27.6926C26.4488 30.027 26.5706 31.2665 24.5638 33.2839C22.4656 35.3878 17.205 39.2499 11.823 42.1896C9.54243 43.4289 6.47118 44.9276 4.1601 45.7347C2.42686 46.3109 0.99768 46.5704 0.268062 45.3886C-0.188042 44.6106 0.0248561 43.9188 0.268062 43.3137C2.15334 38.5004 7.53542 29.5083 11.0628 23.6575C11.4277 23.0811 11.7924 22.4472 12.1573 21.8418C17.57 12.9936 24.7462 2.15691 26.1753 0.398712C26.3577 0.168194 26.7532 -0.120014 27.0875 0.053051C27.3611 0.197155 27.3611 0.514091 27.3307 0.74461C27.3307 0.773571 27.2396 1.0905 27.2093 1.2346C24.8676 10.1692 25.1414 18.9311 26.2056 27.6926Z" fill="#AEAEAE"/>
<path d="M34.1116 30.4303C31.8311 29.4503 30.6451 28.9315 29.8241 26.28C28.9424 23.5133 28.0605 17.2589 28.0605 11.3794C28.0605 8.90072 28.2126 5.61507 28.6384 3.30941C28.9728 1.60914 29.4592 0.283245 30.9189 0.283245C31.8311 0.283245 32.3481 0.830696 32.8042 1.34966C36.2704 5.26941 41.7745 14.2038 45.3625 19.9969C45.7274 20.6023 46.0923 21.2074 46.457 21.8415C51.8393 30.7185 58.1639 42.0165 59.0458 44.0339C59.1676 44.3221 59.2587 44.7831 58.9241 44.9849C58.62 45.129 58.3465 44.956 58.1639 44.8408C58.1336 44.8121 57.8904 44.5816 57.7687 44.4949C50.7751 38.0967 42.6258 33.9177 34.1116 30.4303Z" fill="#AEAEAE"/>
<path d="M27.6349 35.5607C29.6722 34.1771 30.7364 33.4566 33.5948 34.0907C36.5443 34.7823 42.6866 37.1746 48.0992 40.1143C50.3494 41.3538 53.2686 43.1118 55.1537 44.6105C56.5525 45.7346 57.495 46.8008 56.7957 47.9826C56.3093 48.7608 55.5794 48.9049 54.8801 49.02C49.5587 49.8849 38.6425 49.9423 31.5575 50H29.3072C18.5125 49.9713 5.04205 49.51 2.73097 49.222C2.39659 49.1641 1.94049 49.02 1.9708 48.6454C1.9708 48.3284 2.24456 48.1841 2.45746 48.0977C2.51832 48.069 2.82239 47.9826 2.97442 47.9538C12.3094 45.3885 20.1852 40.8059 27.6349 35.5607Z" fill="#AEAEAE"/>
<path d="M138.526 0.722538C149.198 0.722538 154.535 5.05772 154.535 13.7281C154.535 16.8355 153.849 19.2197 152.324 21.026C150.799 22.7603 148.665 23.6995 145.92 23.9162C149.351 24.0608 152.095 25.1446 154.001 27.0955C155.831 29.0459 156.821 31.792 156.821 35.3326C156.821 44.6535 150.799 49.35 138.831 49.35H120.078V0.722538H138.526ZM141.194 20.0148C142.032 19.653 142.643 19.0751 143.024 18.2805C143.328 17.4854 143.558 16.329 143.558 14.6679C143.558 13.0782 143.328 11.9224 143.024 11.1272C142.643 10.3321 142.032 9.75418 141.194 9.39292C140.279 9.10426 139.06 8.88762 137.307 8.88762H131.513V20.5201H137.23C138.983 20.5201 140.279 20.3035 141.194 20.0148ZM142.338 40.4624C143.328 40.1011 144.091 39.4506 144.548 38.584C144.93 37.6448 145.158 36.3444 145.158 34.6095C145.158 32.8758 144.93 31.5753 144.548 30.7082C144.091 29.841 143.328 29.1911 142.262 28.8293C141.27 28.468 139.669 28.324 137.687 28.324H131.513V40.9683H137.687C139.745 40.9683 141.27 40.8242 142.338 40.4624Z" fill="#D1D1D1"/>
<path d="M168.638 43.8585C164.75 39.6673 162.768 33.4538 162.768 25.0721C162.768 8.38124 170.62 0.000110626 186.247 0.000110626C190.211 0.000110626 193.794 0.578014 197.072 1.66181L194.861 10.5488C192.651 9.46503 189.982 8.88713 186.933 8.88713C183.578 8.88713 181.063 9.39302 179.386 10.2602C177.633 11.1993 176.413 12.789 175.727 15.1013C175.041 17.3409 174.66 20.6649 174.66 25.0721C174.66 29.4799 175.041 32.7313 175.727 34.9709C176.413 37.2111 177.557 38.8008 179.31 39.6673C180.987 40.6071 183.503 41.041 186.704 41.041C190.364 41.041 193.412 40.3178 195.928 38.9454L198.063 48.1217C194.632 49.4221 190.668 50 186.247 50C178.395 50 172.525 47.977 168.638 43.8585Z" fill="#D1D1D1"/>
<path d="M241.667 0.722538C251.501 0.722538 256.38 4.9131 256.38 13.2948C256.38 16.6188 255.693 19.1477 254.245 21.026C252.873 22.8324 250.815 23.8441 248.223 23.9882C251.577 24.1328 254.169 25.1446 255.999 27.1675C257.828 29.1911 258.743 32.0806 258.743 35.7659C258.743 44.8702 253.025 49.35 241.667 49.35H226.268V0.722538H241.667ZM247.079 21.1707C248.528 20.6648 249.519 19.8702 250.129 18.6412C250.738 17.4854 251.044 15.7517 251.044 13.5115C251.044 11.2719 250.738 9.60956 250.205 8.38173C249.595 7.22532 248.681 6.35817 247.309 5.92488C245.936 5.41899 244.03 5.20235 241.439 5.20235H231.681V21.8932H240.828C243.573 21.8932 245.631 21.6765 247.079 21.1707ZM248.681 44.003C250.281 43.4971 251.425 42.5579 252.111 41.3295C252.797 40.0291 253.178 38.1501 253.178 35.6933C253.178 33.237 252.797 31.2861 252.111 29.9857C251.425 28.6852 250.205 27.7455 248.452 27.2402C246.774 26.7337 244.259 26.445 241.058 26.445H231.681V44.8702H241.515C244.64 44.8702 247.003 44.5809 248.681 44.003Z" fill="#D1D1D1"/>
<path d="M274.294 37.5722L270.102 49.35H264.156L282.604 0.722538H287.864L306.312 49.35H300.289L296.096 37.5722H274.294ZM285.196 6.86406L275.895 33.0924H294.496L285.196 6.86406Z" fill="#D1D1D1"/>
<path d="M319.957 0.722538L346.257 38.9453V0.722538H351.517V49.35H347.02L320.644 11.1272V49.35H315.383V0.722538H319.957Z" fill="#D1D1D1"/>
<path d="M370.499 25.2166V49.35H364.934V0.722538H370.499V23.8441L390.929 0.722538H397.942L376.064 24.4941L400 49.35H392.453L370.499 25.2166Z" fill="#D1D1D1"/>
<path d="M99.648 9.8988V49.35H87.8318V9.8988H74.5675V0.722538H112.988V9.8988H99.648Z" fill="#D1D1D1"/>
</svg>
